<svg version="1.1" id="Ebene_1" xmlns="http://www.w3.org/2000/svg" x="0" y="0" viewBox="0 0 160 160" xml:space="preserve"><style>.st0{fill:#c2add6}.st1{fill:#639}.st4,.st5{stroke:#639;stroke-miterlimit:10}.st4{fill:#fff;stroke-width:1.434;stroke-linecap:round;stroke-linejoin:round}.st5{fill:#c2add6;stroke-width:.8436}.st6{fill:#fff}.st7{fill:none;stroke-width:5.9049;stroke-linecap:round;stroke-linejoin:round}.st12,.st14,.st7,.st8{stroke:#639;stroke-miterlimit:10}.st8{fill:#fff;stroke-width:1.0966;stroke-linecap:round;stroke-linejoin:round}.st12,.st14{fill:#639;stroke-width:1.434}.st14{fill:#fff;stroke-width:1.0966}.st15,.st16{stroke-linecap:round;stroke-linejoin:round}.st15{fill:none;stroke:#fff;stroke-width:.8436;stroke-miterlimit:10}.st16{stroke-width:2.5307}.st16,.st30,.st33,.st38{fill:none;stroke:#639;stroke-miterlimit:10}.st30{stroke-width:1.0966;stroke-linecap:round;stroke-linejoin:round}.st33,.st38{stroke-width:1.2944}.st38{stroke-width:1.0966;stroke-linecap:round}</style><ellipse transform="matrix(.9999 -.01036 .01036 .9999 -1.476 .688)" class="st0" cx="65.7" cy="142.9" rx="26.1" ry="2.3"/><path class="st0" d="M114.5 142.6c.2 1.9-10.8 3.9-24.5 4.6-7.7.4-14.6.3-19.2-.2-3.7-.4-5.9-1-6-1.9-.1-1-3-2.7 2.1-3.6 1.1-.2 2.6-.3 4.4-.4 5.4-.3 13.3-.4 18-.6 13.8-.7 25 .3 25.2 2.1z"/><path class="st1" d="M71.1 125s-1.3-1.6-1.3-1.7c-.7-.8-1.6-1.3-2.7-1.4-1.1-.1-2.1.2-2.9.8-.8.6-1.4 1.5-1.5 2.5-.1 1 .2 2 .9 2.8 0 0 1.3 1.6 1.3 1.7.7.8 1.6 1.3 2.7 1.4.5.1.9 0 1.4-.1.6-.1 1.1-.4 1.5-.7.8-.6 1.4-1.5 1.5-2.5s-.3-2-.9-2.8z"/><ellipse transform="rotate(-83.984 67.955 127.367)" cx="68" cy="127.4" rx="3.1" ry="3.4" fill="#c2add6" stroke="#639" stroke-width="1.281" stroke-linecap="round" stroke-linejoin="round" stroke-miterlimit="10"/><path d="M68.8 127.5c0 .4-.4.8-.9.7-.4 0-.8-.4-.7-.9s.4-.8.9-.7c.4.1.7.5.7.9z" fill="#c2add6" stroke="#639" stroke-width=".754" stroke-miterlimit="10"/><path class="st1" d="M111.6 136.3c-.1-.1-.1-.2-.2-.2l-.1-.1s0-.1-.1-.1c0 0 0-.1-.1-.1 0 0 0-.1-.1-.1 0 0 0-.1-.1-.1 0 0 0-.1-.1-.1 0 0 0-.1-.1-.1 0 0 0-.1-.1-.1 0 0 0-.1-.1-.1 0 0 0-.1-.1-.1 0 0 0-.1-.1-.1 0 0 0-.1-.1-.1 0 0 0-.1-.1-.1 0 0 0-.1-.1-.1 0 0 0-.1-.1-.1 0 0 0-.1-.1-.1 0 0 0-.1-.1-.1 0 0 0-.1-.1-.1 0 0 0-.1-.1-.1 0 0 0-.1-.1-.1 0 0 0-.1-.1-.1-.8-.9-1.9-1.5-3.2-1.8-1.3-.2-2.6 0-3.7.5-1.1.6-1.8 1.6-2 2.7-.2 1.1.1 2.3 1 3.2 0 0 0 .1.1.1 0 0 0 .1.1.1 0 0 0 .1.1.1 0 0 0 .1.1.1 0 0 0 .1.1.1 0 0 0 .1.1.1 0 0 0 .1.1.1 0 0 0 .1.1.1 0 0 0 .1.1.1 0 0 0 .1.1.1 0 0 0 .1.1.1 0 0 0 .1.1.1 0 0 0 .1.1.1 0 0 0 .1.1.1 0 0 0 .1.1.1 0 0 0 .1.1.1 0 0 0 .1.1.1 0 0 0 .1.1.1 0 0 0 .1.1.1v.1c.8.9 1.9 1.7 3.3 1.9.4.1.7.1 1.1.1 2.3 0 4.3-1.4 4.6-3.3.3-1.1 0-2.2-.7-3z"/><ellipse transform="rotate(-79.84 107.459 138.342)" class="st4" cx="107.5" cy="138.3" rx="3.5" ry="4.3"/><ellipse transform="rotate(-79.84 107.509 138.404)" class="st5" cx="107.5" cy="138.4" rx=".9" ry="1"/><path class="st1" d="M75.7 132s-1-2.1-1.1-2.1c-.6-1-1.5-1.8-2.6-2.2-1.1-.4-2.3-.3-3.4.1-1.1.5-1.9 1.3-2.2 2.4-.4 1.1-.2 2.2.3 3.3 0 0 1 2.1 1.1 2.1.6 1 1.5 1.8 2.6 2.2.5.2 1 .3 1.5.3.6 0 1.3-.1 1.9-.4 1.1-.5 1.9-1.3 2.2-2.4.4-1.2.3-2.3-.3-3.3z"/><ellipse transform="rotate(-71.422 71.76 133.78)" class="st4" cx="71.8" cy="133.8" rx="3.5" ry="3.8"/><path class="st5" d="M72.6 134.1c-.2.5-.7.7-1.1.6-.5-.2-.7-.7-.6-1.1s.7-.7 1.1-.6c.6.2.8.7.6 1.1z"/><path class="st4" d="M118.4 129.4c-.4 3.8-12.7 5.7-27.5 4.1-8.3-.9-15.5-2.6-20.3-4.6-3.7-1.6-5.4-3.4-5.7-5.1-.4-2-2.4-6.1 3.4-6.8 1.2-.1 2.9-.1 4.8.1 5.9.5 14.2 2.1 19.3 2.6 14.8 1.5 26.4 5.9 26 9.7z"/><circle class="st1" cx="58" cy="128.7" r="2.1"/><circle class="st1" cx="53.6" cy="125.1" r="1.1"/><path class="st0" d="M110.5 125.3c-4.8-1.8-11.3-3.2-18.3-3.9-1.6-.2-3.6-.4-5.7-.8-.3.2-.7.5-.7.5s1.4 7.7 1.7 8.8c.3.8 1.2 1.4 1.7 1.7.6.1 1.2.1 1.8.2 3.4.4 6.8.5 9.9.5 11.6 0 15.6-2.3 15.7-3.1.2-.3-.8-1.9-6.1-3.9zm-31.8-5.9c-2-.3-4-.5-5.7-.7-1.2-.1-2.2-.2-3-.2-.6 0-1.1 0-1.5.1-1.2.1-2 .5-2.3.9-.4.6-.1 2 .2 2.9.1.3.2.7.2.9.1.6.8 2.2 4.7 3.9 2.3 1 5.1 1.9 8.3 2.6.9-.2 1.1-1.1 1.1-1.1s-1-7-1.1-8.2c.1-.6-.5-.9-.9-1.1z"/><path class="st6" d="M126 74.1c-.4 0-.6-.3-.7-.4l-.2-.3c-.1-.2-.2-.3-.4-.5l-.2-.2-.1-.4c0-.2.2-.4.2-.5 0-.1.1-.2.1-.3.1-.3.3-.6.8-.8.1 0 1-.5 1.5-.5 1 0 1.8.7 1.8 1.6 0 .8-.6.9-.8.9h-.2c-.4.1-.8.4-1.2.8 0 .4-.2.6-.6.6z"/><path class="st1" d="M127.1 70.9c.7 0 1.3.4 1.3 1.1 0 .4-.3.3-.7.4-.5.2-1 .6-1.4 1-.1.1-.2.2-.3.2-.1 0-.1-.1-.3-.2-.2-.3-.4-.6-.6-.8-.2-.2-.2-.1 0-.3.3-.5.3-.7.7-.9.3-.2 1.1-.5 1.3-.5m0-1.1c-.6 0-1.7.5-1.7.5-.6.3-.8.7-1 1 0 .1-.1.1-.1.2-.1.1-.3.4-.3.8 0 .5.3.8.4.9.1.1.2.3.3.5.1.1.1.2.2.3.1.2.5.7 1.1.7.5 0 .9-.3 1-.5.5-.5.8-.6 1-.7h.1c1.2-.2 1.3-1.1 1.3-1.5 0-1.3-1-2.2-2.3-2.2z"/><path class="st6" d="M128 76c-.4 0-.9-.3-1-.8 0-.1-.1-.1-.2-.1-.1-.1-.3-.2-.5-.3-.1-.1-.2-.3-.2-.5 0-.5.6-1 .6-1 .6-.6 1.3-.7 2-.9.2-.1.4-.1.6-.1.3 0 .6.1 1 .4.8.6 1 1.6.5 2.4-.1.4-.4.6-.8.6h-.8c-.3 0-.6.1-.9.3l-.1.1-.2-.1z"/><path class="st1" d="M129.4 72.9c.2 0 .4.1.6.3.5.4.7 1.1.4 1.7-.1.2-.1.3-.3.3h-.1-.5-.4c-.4 0-.8.2-1.2.3h-.1c-.2 0-.4-.1-.5-.3-.1-.5-.5-.5-.8-.8-.2-.2.2-.6.4-.8.5-.5 1.1-.6 1.8-.7h.7m0-1.1c-.2 0-.5 0-.7.1-.7.2-1.5.3-2.3 1-.1.1-.8.7-.8 1.4 0 .3.1.7.4.9.2.2.4.3.5.4.2.6.9 1 1.5 1 .2 0 .4 0 .5-.1.3-.1.5-.2.7-.2h.9c.3 0 1-.1 1.3-.9.5-1.1.2-2.3-.7-3-.3-.4-.7-.6-1.3-.6z"/><path class="st6" d="M128.8 78.4h-.4c-.6-.1-1-.5-1.2-1.2-.2-.8.3-1.2.6-1.4.4-.4.9-.5 1.4-.6.2-.1.4-.1.6-.1.2 0 .4 0 .6.1.1 0 .3.1.4.2.4.2.7.5.9.9.2.4.4.8.3 1.2 0 0 0 .2-.2.5l-.2.3h-.3c-.3 0-1.2 0-1.5.1h-1z"/><path class="st1" d="M129.7 75.6c.1 0 .3 0 .4.1.1 0 .2.1.3.1.3.2.5.4.6.7.1.3.3.6.2.9 0 .1-.2.4-.2.4s-1.1 0-1.6.1c-.2 0-.5.1-.7.1h-.3c-.4-.1-.6-.4-.8-.8-.1-.4.1-.6.4-.9.3-.3.7-.4 1.1-.5.3-.2.4-.2.6-.2m0-1.1c-.2 0-.5 0-.7.1-.4.1-1 .3-1.6.8-.2.2-1 .9-.7 2 .2.9.8 1.5 1.6 1.6h.5c.3 0 .6 0 .8-.1.3 0 1.1-.1 1.5-.1h.7l.3-.6c.2-.4.2-.6.3-.7.1-.7-.1-1.2-.3-1.5v-.1c-.2-.5-.6-.9-1.1-1.2-.2-.1-.3-.2-.5-.2-.3.1-.5 0-.8 0z"/><path class="st7" d="M98.3 66.7c.4 7.3 5.9 11.8 12.7 12.9 3.4.5 6 .2 8.5-.6"/><path class="st8" d="M120.7 75.5c-2.3 1.1-3.9 1-3.5 3.9.2 1.1.6 2 1.3 2.4 1.1.6 2.9-.1 4.9-.8"/><path class="st8" d="M124.5 80.5s-.7.5-1.6.4c-.6-.1-1.5-.6-2.1-2-.5-1.3-.7-2.5-.4-3.1.3-.6.8-.7.8-.7s0-2.1.5-3.1c.3-.6 2.1-1.5 2.7-.7.5.7 9 5.5 6.7 7.4-2.4 2.2-3.6 2-6.6 1.8z"/><path class="st1" d="M98.7 61.4c2.9 1.8 2.5 6.1 2.5 6.1l-1.1 5.1-2.7-5.3s-1.9-7.8 1.3-5.9z"/><path d="M90.1 29.3c-8 .2-19.9.8-19.9 3.9 0 2-10.6 8.3-23.9 8.5 3.2-2.1 3.8-3.9 5.2-6.8-3.6-2.6-3.3-3-5.5-5.4 6.9-.3 17.6-6.1 16.6-8.8-1.1-2.9 8.1-7.4 15.1-7.5 5.3 10.9 6.8 8.3 12.4 16.1z" fill-rule="evenodd" clip-rule="evenodd" fill="#639"/><path class="st6" d="M68.3 22c-.5-.2-.9-.3-1.2-.1-.4.3-.4.7 0 1.3.9 1.5 3.3.8 4.4 3.1.8 1.5 0 2.4-.9 3.3-.3.2-.6.5-.8.5 0 0-.1 0-.1-.1-.2-.6-.3-.9-.6-1.6h.1c1 .2.9-1.9-.3-2.3-1.2-.4-2.2-.9-2.9-2.1-.7-1.3-.8-2.8 0-3.6.3-.3.7-.4 1.2-.4.3.9.6 1.3 1.1 2zM73.3 28.3c-.9-2.8-3.1-5.3-5.3-9.1 0-.1 0-.2.1-.2.4-.3.6-.4 1.1-.6.5-.3 1-.4 1.7-.1.8.4 1.5 1.2 2.1 2 .6.9.9 1.6.8 2.3 0 .1 0 .2.1.2.9.3 2 1.2 2.7 2 1.6 2 0 2.9-1.7 3.2-.7.1-1 .2-1.5.3 0 .1-.1.1-.1 0zM70.2 20c.6 1 1 1.5 1.7 2.5.5-.2.4-.9-.1-1.7-.5-.7-1.1-1.1-1.6-.8zm2.8 4.1c.7 1.1 1 1.6 1.5 2.6.7-.1.9-.8.3-1.6-.6-.8-1.3-1.2-1.8-1zM73.5 16.8h.2c.8.9 1.3 1.5 2.5 2.5.2.2.3.3.6.5-.2-.3-.3-.5-.4-.8-.5-1-.7-1.6-.8-2.5 0-.1.1-.2.2-.2.6-.1.9-.2 1.5-.3.1 0 .2 0 .2.1.1 2 1.2 3.4 2.2 5.7v.1c1.8 2 2.9 3.2 3.5 5.1-.6.1-.9.2-1.6.2-.1 0-.2 0-.2-.1-.4-1.7-1.9-2.9-3.6-4.9-2.8-2-4.1-3.1-5.9-4.9.7-.3 1-.3 1.6-.5zM58.2 30.9l.3.6c1 1.8 2.5 4.9.2 5.7-2.3.8-4.1-1.1-5.1-3-1-2-1.5-4.3.5-5.2 1.1-.5 2.2-.2 3 .5-.5.4-.7.7-1.2 1.2-.2-.3-.6-.7-1.2-.5-1 .5-.2 2.3.3 3.1.5.9 1.7 2.9 2.9 2.3.8-.4.1-1.7-.3-2.3-.4.2-.5.3-.9.5-.4-.7-.6-1-1-1.6 1.1-.5 1.5-.8 2.5-1.3zM59.7 27.2c1.9 1.7 3.6 2.6 6 6.4-.6.3-.9.5-1.5.8-.4-.7-.6-1-1.1-1.6-.6.3-.8.4-1.3.7.3.7.4 1.1.7 1.8-.5.3-.7.4-1.2.7-1.3-3.9-2-6.2-2.9-8.3.5-.3.8-.3 1.3-.5zm.9 2.2c-.3-.3-.4-.5-.7-.8.2.3.2.5.4.9.2.7.3 1.2.8 2.3l1-.5c-.7-.9-.9-1.3-1.5-1.9zM64.3 23.5c.2.4.4.7.8 1.2-.4.4-.6.5-1 .9 1.8 2.2 2.8 3.5 3.9 6.5-.5.4-.8.6-1.4.9-1.2-3.3-2-4.4-3.8-6.3-.4.3-.6.4-1 .7-.4-.4-.5-.6-.8-.9 1.2-.9 1.9-1.7 3.3-3z"/><path d="M131.3 82.2L78 13.4c-.3-.4-.2-1 .2-1.3v0c.4-.3 1-.2 1.3.2l53.3 68.9c.3.4.2 1-.2 1.3h0c-.4.2-1 .2-1.3-.3z" fill="#639" stroke="#639" stroke-width=".422" stroke-miterlimit="10"/><path class="st1" d="M123.7 78.6c-.2-.1-.1-.4 0-.6 1-1.3 0-2.5.2-2.6.2-.1.4-.1.6.1.5.6 1.1 1.2 0 2.7-.1.1-.7.5-.8.4z"/><path class="st6" d="M126 74c-.3 0-.5-.2-.6-.4l-.2-.3c-.1-.2-.2-.4-.4-.5l-.1-.1-.1-.3c0-.2.1-.3.2-.4.1-.1.1-.2.2-.3.1-.3.3-.5.7-.7.1-.1 1-.5 1.4-.5.9 0 1.7.6 1.7 1.5 0 .6-.5.7-.7.8-.1 0-.2 0-.2.1-.4.1-.8.4-1.2.9-.2 0-.4.2-.7.2z"/><path class="st1" d="M127.1 70.9c.7 0 1.3.4 1.3 1.1 0 .4-.3.3-.7.4-.5.2-1 .6-1.4 1-.1.1-.2.2-.3.2-.1 0-.1-.1-.3-.2-.2-.3-.4-.6-.6-.8-.2-.2-.2-.1 0-.3.3-.5.3-.7.7-.9.3-.2 1.1-.5 1.3-.5m0-.9c-.5 0-1.6.5-1.6.5-.5.3-.7.6-.9.9 0 .1-.1.1-.1.2-.1.1-.3.3-.3.6 0 .4.2.6.3.7l.1.1c.1.1.2.3.4.5.1.1.1.2.2.3.1.2.4.6.9.6.4 0 .7-.3.9-.4.5-.5.9-.7 1.1-.8h.2c1-.2 1.1-.8 1.1-1.2-.2-1.1-1.1-2-2.3-2z"/><path class="st6" d="M128 75.9c-.3 0-.8-.2-.9-.7 0-.1 0-.1-.2-.2-.1-.1-.3-.2-.4-.3-.1-.1-.2-.3-.2-.4 0-.5.6-.9.6-1 .6-.5 1.3-.7 1.9-.8.2 0 .4-.1.6-.1.3 0 .6.1.9.4.7.6.9 1.5.5 2.3-.1.3-.4.5-.7.5h-.8c-.3 0-.6.1-1 .3H128z"/><path class="st1" d="M129.4 72.9c.2 0 .4.1.6.3.5.4.7 1.1.4 1.7-.1.2-.1.3-.3.3h-.1-.5-.4c-.4 0-.8.2-1.2.3h-.1c-.2 0-.4-.1-.5-.3-.1-.5-.5-.5-.8-.8-.2-.2.2-.6.4-.8.5-.5 1.1-.6 1.8-.7h.7m0-.9c-.2 0-.4 0-.7.1-.7.2-1.4.3-2.1.9-.1.1-.7.6-.7 1.3 0 .3.1.5.3.7.2.2.4.3.5.4.2.6.8.9 1.3.9.2 0 .3 0 .4-.1.3-.2.6-.3.8-.3H130c.3 0 .8-.1 1.1-.8.5-1 .2-2.1-.6-2.7-.2-.1-.6-.4-1.1-.4z"/><path d="M123.6 74.3s-.2 1.2 1 1.9 2.1.5 2.6 0c0 0 .4-1-.3-1.5-1.2-.8-1.8-2.4-2.4-3s-2.2-.5-2.8.7" fill="#fff" stroke="#639" stroke-width=".844" stroke-linecap="round" stroke-linejoin="round" stroke-miterlimit="10"/><path class="st6" d="M124.6 75.6s-.8-.4-.9-1.7c0-.4-.3.3-.3.6 0 1 .3 1.3.3 1.3l-1-.4.3-2.9 1 .6.6 2.5zM128.6 78.4h-.2c-.5-.1-.9-.5-1.1-1.2-.2-.7.3-1.1.5-1.3.4-.3.8-.5 1.3-.6.2 0 .4-.1.6-.1.2 0 .4 0 .5.1.1 0 .2.1.4.1.4.2.6.5.8.9.2.4.3.7.3 1.1 0 0 0 .1-.3.6l-.1.3h-.3s-.7-.1-1.2-.1h-.2c-.1 0-.2 0-.3.1-.3 0-.5.1-.7.1z"/><path class="st1" d="M129.7 75.6c.1 0 .3 0 .4.1.1 0 .2.1.3.1.3.2.5.4.6.7.1.3.3.6.2.9 0 .1-.2.5-.2.5s-.7-.1-1.3-.1h-.3c-.3 0-.6.1-.9.1h-.2c-.4-.1-.6-.5-.7-.9-.1-.4.1-.6.4-.9.3-.3.7-.4 1.1-.5h.6m0-.8c-.2 0-.4 0-.7.1-.4.1-1 .3-1.5.7-.2.2-.9.8-.6 1.7.2.8.7 1.4 1.4 1.5h.3c.3 0 .5 0 .7-.1h.5c.5 0 1.1.1 1.1.1l.6.1.3-.6c.2-.5.3-.7.3-.7.1-.6-.1-1-.3-1.4v-.1c-.2-.4-.6-.8-1-1-.2-.1-.3-.1-.5-.2-.1-.1-.4-.1-.6-.1z"/><path class="st6" d="M116.5 128.2l-.5-.2c0 .2.3.8-.1 1-1.4 1.1-6.7 2.3-14.9 2.3-3.2 0-6.5-.2-9.9-.5-7.8-.8-14.9-2.5-19.7-4.5-3.8-1.6-4.5-3.1-4.6-3.7-.1-.3-.1-.6-.2-1-.1-.5-.4-1.6-.4-2.2l-.3.4c-.2.8.1 1.9.3 2.7.1.3.2.7.2.9.1.6.9 2.3 4.9 4 4.8 2.1 12 3.7 19.8 4.5 3.4.4 6.8.5 10 .5 11 0 15.8-2.2 15.9-3.3 0 0-.3-.7-.5-.9z"/><path class="st6" d="M116.3 128.3c.4 1.9-5.1 3.2-15.3 3.2-3.2 0-6.5-.2-9.9-.5-7.8-.8-15-2.5-19.8-4.5-3.9-1.7-4.6-3.3-4.7-3.9-.1-.3-.1-.6-.2-.9-.1-.5-.3-1.2-.4-1.8-.2.7.1 1.8.3 2.6.1.3.2.7.2.9.1.6.8 2.2 4.7 3.9 4.8 2.1 12 3.7 19.8 4.5 3.4.4 6.8.5 9.9.5 11.6 0 15.6-2.3 15.7-3.1.2-.1-.1-.6-.3-.9zM85.9 76.7l5.9-21.8 8.9 9z"/><path class="st12" d="M73.8 85.8c-8.6 2.9-15.2 5.7-25 5.6-15.8-.2-12.4-25.7-9.5-26.2 2.6-.5 2.8.5 2.5 1.7-1.4 5.2-1.1 10.4.6 15 .9 2.4 3.6 3.2 4.9 3.2 6.8 0 11.1-1.7 16.6-4.9.7-.8 1.6-1.6 2.4-2.4"/><path class="st12" d="M66.3 77.7c3.9-10.6 9.5-17.1 19.1-23 1.3 1 3.6 2.8 4.9 3.8-1.5 6.7-3.9 12.6-5.4 19.4 3-2.5 13-11.2 13-11.2s-.9 1.4-1.8 1.8c-3.8 2-7.1 10.3-6.9 10.5 7.6 6.5 15.6 9.7 19.4 19 3.1 7.7.6 11.7-2.9 18.4-.4.8-1.5 1.2-2.4 1.3-.5.1-.5.1-1-.2-1.3-.8-.6-2.4 0-3.4 2.7-5 4.1-8.1 1-13.6-3.1-5.5-10.2-9.3-15.8-10.5-5.9-1.3-9-1.4-13.9-4.1"/><path class="st6" d="M78.5 63.1l.8-1c.2-.3.5-.4.8-.3 1 .2 2.9.6 3.3 1l-.4.9-4.5-.6zM71.6 84.7s2.7 2.2 4.6 3.3c.2.1.3 1.1-.5 1s-4.1-4.3-4.1-4.3z"/><path class="st1" d="M92.6 60.5l-2 3.9c-.1.2.1.5.4.4l3.3-1.2-.2 2.5c-.1.4.2.6.6.4l3.4-2.2s-2.1-.8-3.1-1.5c-1.1-.6-2.4-2.3-2.4-2.3z"/><path class="st14" d="M36.4 54.8c3.5.1 7.4.5 9.6 2.9 0 0 .4.7-.1 2.1-.5 1.4-2.8 5.4-2.8 5.4s.5.6 0 1.4c-.4.8-1.7 1.4-3.7.8-2-.6-2.5-1.8-2.4-2.6.1-.8-.9-1.5-2.8-1.7s-4.4-.8-5.7-3.1c-.5-.8-.6-1.7-.6-2.4 0-2.3 1.3-3 8.5-2.8z"/><path class="st1" d="M28.3 59c-.1 0-.2 0-.3-.1-.2-.2.1-1.8.3-1.6.2.2.3.2.6.1 1-.4 2.3-.3 2.4-.3.2 0 .4 0 .3.3 0 .2-2.1-.1-3 1.6h-.3zM45.7 59.9s-3.9-2.9-7.2-3c-6.1-.2-6.5.3-6.1 1.6.4 1.4 2.4 3.2 1.2 4.1-.8.6 1.4.6 1.4.6l3.8 3.9 3.4.1 1.2-1.8 2.3-5.5z"/><path class="st6" d="M35.6 62.7c.3-.7.5-1.3.8-2 .1-.2.2-.5-.1-.6-.2-.1-.4 0-.5.2-.4.7-1 1.5-.2 2.4zM36.7 63c.2-1 .8-1.2 1.2-1.6.2-.2.3-.5 0-.7-.2-.2-.4-.2-.6-.1-.8.5-1.1 1.4-1.3 2.3-.1.4.6.5.6.5s-.2.3.2.7c.7.2.8-.5 1.3-.7.4-.2.7-.4 1.1-.3.5 0 .8-.3.7-.8-.1-.5-.5-.5-1-.5-.9-.1-1.3.6-2.2 1.2z"/><path class="st14" d="M112.1 128.7c-1.8.2-12.5.2-16-4.2 0 0-.3-.7.4-2s3.6-5.3 3.6-5.3-.4-.4.2-1.2 1.6-.9 3.6-.3c3.5 1.1 2.4 2.6 1.8 2.7-.7.1 1.3 2 3 2.9 1.7 1 4.6 1.5 5.4 3.1 1 2.5-.3 4-2 4.3z"/><path class="st1" d="M111.2 127.3h-.2c-.2 0-.4-.2-.4-.4s2.1.3 3.6-1.4c.2-.2.4-.1.6.1.1.2.1.4-.1.6-.2.2-1.1 1.3-1.1 1.1-.1-.4-2 0-2.4 0zM96.5 122.5s2.1 2.4 6.2 3.5c2.3.6 5.8.9 5.8.9s2.6.4.4-2.7c-.9-1.2 1.5-1.7 1.5-1.7s-3.2-1.7-4.5-3.8c-.4-.6-.2-1.5-.5-1.9-.7-1-1.7-1-1.7-1l-2.1-.4-1.3.8-.4 1.1-3.4 5.2z"/><path class="st6" d="M107 120.8c-.3.7-.3.7-.6 1.3-.1.2-.2.4 0 .6.2.2.4 0 .6-.2.4-.7.6-.8 0-1.7zM105.9 120.3c-.3 1-.6.7-1 1.1-.2.2-.4.4-.1.7.2.2.4.3.6.2.9-.4.9-.8 1.2-1.7.2-.5-1-.6-.6-1.3-.6-.2-.9.5-1.3.6-.4.1 0 0-.4 0-.5-.1-.8.2-.7.7.1.5.5.6.9.6.7 0 .5-.4 1.4-.9z"/><path class="st15" d="M102.6 118s4.9-6.6 4.9-13.5C107.5 93.3 88 84 88 84"/><path class="st1" d="M103.6 117.9s-1 .4-1.3-.5l-.5 1.1 1.8.5v-1.1z"/><path d="M68.4 83s-10.2 5.5-18.6 5.5c-15.7 0-9.9-23-9.9-23" fill="none" stroke="#fff" stroke-width=".844" stroke-linecap="round" stroke-miterlimit="10"/><g fill="none" stroke="#639" stroke-miterlimit="10"><path stroke-width=".728" d="M59.5 84.2l1.7 2.4"/><path stroke-width=".425" d="M59.3 85.3l1.5 2.2"/><path stroke-width=".364" d="M58.8 86l1.5 2.3"/><path stroke-width=".303" d="M58 86.3l1.6 2.5"/><path stroke-width=".121" d="M56.7 85.6l2 3.4"/></g><g fill="none" stroke="#639" stroke-miterlimit="10"><path stroke-width=".676" d="M87.3 85.4l.8-2.5"/><path stroke-width=".394" d="M88.2 85l.7-2.3"/><path stroke-width=".338" d="M89 85.1l.7-2.4"/><path stroke-width=".282" d="M89.6 85.6l.9-2.6"/><path stroke-width=".113" d="M89.9 86.9l1.3-3.3"/></g><path class="st1" d="M39.2 65.7s.9-.6 1.4.2l.3-1.2-1.9-.1.2 1.1zM70.3 70.6s-5 9-14.1 9c0 0 3.8 12.2 20.1 12.2l3.2-4-1.3 3.2 4.4.9 1.9-3"/><g><path class="st7" d="M63.9 60.5s-1.7-2.6-1.7-5.8c0-3.7 3.4-7.1 8.3-7.1 4.2 0 10.3 1.9 15.1 6"/></g><path class="st8" d="M69.1 61.3c-2.1-1.5-2.7-3-5.1-1.2-.9.7-1.5 1.5-1.5 2.2 0 1.3 1.4 2.5 3 4"/><path class="st1" d="M84.6 49c5.6 3.3 7.7 5.9 7.7 5.9l-2 6.8s-8.5-8.7-9-13.1c0-1.2 1.5-.7 3.3.4z"/><path class="st6" d="M81.9 54.5s1.7 1 2.3 2.1c0 .1-.1.2-.1.1l-3.1-2 .9-.2z"/><path class="st1" d="M70.8 68.7c-.1 0-.1 0-.2-.1-.2-.1-1.9-1.5-2.5-2.9v-.2l.1-.1v.1c.5.8 1.4 1.5 2.1 2.1.6.5.9.7.8.9 0 .1-.1.2-.3.2z"/><path class="st8" d="M66.4 67.1s-.7-.3-.9-1.1c-.2-.5-.3-1.3 1-3 1.1-1.5 2-1.7 2.6-1.6.7.1 1 .6 1 .6s3.3-.5 4-1.5c.4-.5.5-.7.9-1.1.2-.2.6-.4.8-.3 1.3.5 1.6 2.3.8 3.2-1 1.2-1.5.8-1.9 1.5-.4.7 3.2 2 2.5 3.6 0 0-.9 2.2-1.8 1.5 0 0-1.1 2.4-2.3 1.5 0 0-1.4 2.4-3.2 1-1.2-1-2.9-2.3-3.5-4.3z"/><path class="st1" d="M72.4 70.2s.3-.3-.3-.8c0 0 0-.1.1-.1 0 0 .5.3.8.5.6.3 1.1.1 1.1.1l-.4.5-1.3-.2zM74.7 68.8s.2-.4-.1-.8c0 0-.2-.2 0-.2.1 0 .3.2.6.4.4.2 1-.3 1-.3l-.6.9h-.9zM71 68.3c-.1 0-.1 0-.2-.1 0 0-2-1.2-2.8-2.7v-.2l.1-.1.1.1c.6.8 1.5 1.4 2.2 1.9.7.5.9.7.9.8 0 .2-.1.3-.3.3z"/><path class="st1" d="M71 68.2h-.1c-.1 0-2-1.2-2.8-2.6v-.1c1 1.3 3.2 2.4 3.1 2.7H71zM72.7 66.5c-.2 0-.4-.2-.9-.7-.6-.6-1.5-1.4-2.4-1.8h-.1l.1-.1.1-.1c1.6.4 3.2 2 3.3 2.1 0 0 .1.1.1.2 0 .2 0 .4-.2.4z"/><path class="st1" d="M72.8 66.2c0-.1 0-.1-.1-.1-.1-.1-1.6-1.6-3.2-2.1h-.1c1.5.7 3 2.5 3.3 2.4.2 0 .2-.1.1-.2z"/><path class="st15" d="M84.5 76.3c.5-3.9-1-8.8-1-8.8l3.7-1.9-1.8-2.9 2.7-2.3"/><path class="st1" d="M84.6 62.6s3.1-1.9 4.1-2.5l-1.1-1.5-3 4zM84.6 69.9s.8 3.8-.4 6.8l.7.4.9-1-1.2-6.2z"/><ellipse cx="103.7" cy="52.1" rx="11.3" ry="12" fill="#fff" stroke="#639" stroke-width="1.265" stroke-miterlimit="10"/><g><path d="M98.7 50.7s-1.4-2.5 1.5-5.7c1.8-1.9 5.4-2.4 7.2-.9 1.8 1.4 3.2 3.9 4.6 5.2 3.6 3.4 8.5 3.4 11.2.5 2.4-2.6 2.4-7.9-2.1-12.1-1.4-1.3-3.6-2.1-3.6-2.1s1.3 2.2.2 3.3c-1.8 2-5.8-.3-8.1-1.5-4-2.1-10.6-2.2-14.6 1.9-5.7 6-3.6 12.9-3.6 12.9" fill="#c2add6" stroke="#639" stroke-width="1.265" stroke-linecap="round" stroke-linejoin="round" stroke-miterlimit="10"/><path class="st30" d="M121.3 38.3s.4 2.5-1.2 4.1c-1.8 2-5.1 2.8-8.7.1-1.4-1-6.8-4.4-8.7-2.4"/><path d="M93.9 54.5c-.6-.2-1.1-.5-1.5-.9-1.5-1.4-1.6-3.8-.1-5.3 1.4-1.5 3.8-1.6 5.3-.1.7.7 1.1 1.6 1.2 2.5" fill="#fff" stroke="#639" stroke-width="1.079" stroke-linecap="round" stroke-linejoin="round" stroke-miterlimit="10"/><path class="st30" d="M113.7 46.4c4.4 4.1 7.9.5 8.6-.2 1-1.1 1.7-2.7 1.7-4.4"/><path d="M95.3 52.1l1.8-.1s-1.3-1.2-3.1-1.8" fill="none" stroke="#639" stroke-width=".844" stroke-linecap="round" stroke-linejoin="round" stroke-miterlimit="10"/><path class="st0" d="M101.8 39.9s2.8-1.7 8 2.4l-2.8-.6-4.1.3-1.1-2.1zM120.3 46.9s-4 3-9.1-1.8h2.4l2.8 1.2 3.9.6z"/><path class="st33" d="M118.2 36.2l3 4"/><path fill="none" stroke="#639" stroke-width=".755" stroke-miterlimit="10" d="M117.7 38.1l2.9 3.6"/><path fill="none" stroke="#639" stroke-width=".647" stroke-miterlimit="10" d="M116.7 39.1l2.9 3.9"/><path fill="none" stroke="#639" stroke-width=".539" stroke-miterlimit="10" d="M115.3 39.6l3 4.3"/><path fill="none" stroke="#639" stroke-width=".216" stroke-miterlimit="10" d="M112.9 38.5l3.8 5.7"/><path class="st33" d="M119.9 37v.9l1 1.1.3-1z"/></g><g><path class="st38" d="M108.8 53.3c-.2-.6-.6-1-1.3-1.2-1.1-.4-2.2.2-2.6 1.2-.1.3-.1.6-.1.8M114.5 52.5c-.1-.2-.3-.5-.6-.6-.9-.6-2.1-.3-2.6.6-.2.2-.2.5-.3.7"/><path class="st1" d="M103.1 49.9s2.3-2 3.9-2.2c.9-.1.9.8.9.8l-.2 1-.9.4-3.3.9-.4-.9zM110.4 60.9c-.4 0-.8-.1-1.1-.2-.2-.1-.9-.3-1.5-.8-.9-.8-.8-1.5-.7-1.9.1-.3.4-.4.7-.3.3.1.4.4.3.7-.1.2.1.5.4.7.4.3.9.5 1.2.6.3.1.9.2 1.5 0 .7-.2 1.1-.6 1.3-1.2.3-1-.1-1.6-.9-2.5-.7-.8-1.5-1.7-1-3.1.1-.3.4-.4.7-.3.3.1.4.4.3.7-.3.7.1 1.2.8 2 .7.9 1.7 1.9 1.1 3.6-.3 1-1.1 1.7-2.1 1.9-.4 0-.7.1-1 .1z"/><path class="st1" d="M108.2 59.1s-.6-.5-1.9-.3c-1.2.2-4.6 1.8-5.3 1.5 0 0-1.1 1-.4 1.1.7.1 7.5-.2 7.7-.5.3-.3-.1-1.8-.1-1.8zM111.4 59.9c-1.1-.3-1.7.3-1.7.3 0 .7.1 1.4.5 1.4 1.1 0 1.4 1.5 1.8 1.7.2.3 1.3-2.9-.6-3.4z"/></g></svg>